<?xml version="1.0" standalone="no"?>
<!DOCTYPE svg PUBLIC "-//W3C//DTD SVG 20010904//EN"
 "http://www.w3.org/TR/2001/REC-SVG-20010904/DTD/svg10.dtd">
<svg version="1.0" xmlns="http://www.w3.org/2000/svg"
 width="275.000000pt" height="275.000000pt" viewBox="0 0 275.000000 275.000000"
 preserveAspectRatio="xMidYMid meet">
<metadata>
Created by potrace 1.16, written by Peter Selinger 2001-2019
</metadata>
<g transform="translate(0.000000,275.000000) scale(0.100000,-0.100000)"
fill="#000000" stroke="none">
<path d="M1074 1866 c-18 -13 -19 -30 -22 -235 -3 -211 -2 -221 17 -240 20
-20 32 -21 304 -21 262 0 285 1 300 18 15 16 17 48 17 235 0 204 -1 218 -20
237 -19 19 -33 20 -298 20 -224 0 -282 -3 -298 -14z m576 -241 l0 -215 -280 0
-280 0 0 215 0 215 280 0 280 0 0 -215z"/>
<path d="M1157 1772 c-37 -40 -9 -102 46 -102 28 0 57 32 57 62 0 25 -36 58
-63 58 -13 0 -31 -8 -40 -18z"/>
<path d="M1385 1650 c-44 -44 -84 -80 -89 -80 -5 0 -20 10 -33 22 l-23 22 -50
-49 c-40 -39 -50 -56 -50 -82 l0 -33 230 0 230 0 0 78 0 78 -63 62 c-34 34
-65 62 -68 62 -2 0 -40 -36 -84 -80z"/>
<path d="M862 920 l1 -65 7 50 c4 28 3 57 -1 65 -5 9 -8 -11 -7 -50z"/>
<path d="M896 971 c-4 -5 2 -7 11 -5 30 7 47 -12 54 -63 l6 -48 2 40 c0 23 -6
50 -15 63 -15 22 -48 30 -58 13z"/>
<path d="M1213 920 c0 -36 2 -50 4 -32 2 17 2 47 0 65 -2 17 -4 3 -4 -33z"/>
<path d="M1528 973 c7 -3 16 -2 19 1 4 3 -2 6 -13 5 -11 0 -14 -3 -6 -6z"/>
<path d="M1580 969 c0 -5 -6 -7 -12 -3 -10 6 -10 4 0 -7 6 -7 12 -25 12 -39 0
-14 -6 -32 -12 -39 -9 -9 -9 -12 -1 -7 6 3 14 0 16 -6 3 -7 6 15 6 50 1 34 -1
62 -4 62 -3 0 -5 -5 -5 -11z"/>
<path d="M1721 971 c-9 -6 -10 -11 -2 -15 15 -9 14 -49 -1 -64 -23 -23 -66
-14 -82 16 -8 15 -15 22 -16 17 -1 -25 32 -55 59 -55 39 0 59 -25 42 -52 -10
-16 -10 -19 1 -16 20 7 22 37 4 57 -15 16 -15 19 -1 31 10 8 14 26 13 51 -2
22 -3 39 -3 39 0 0 -6 -4 -14 -9z"/>
<path d="M1014 945 c-15 -23 -15 -27 0 -50 9 -14 19 -25 21 -25 3 0 -2 11 -11
25 -15 23 -15 27 0 50 9 14 14 25 11 25 -2 0 -12 -11 -21 -25z"/>
<path d="M1096 948 c15 -26 15 -30 0 -55 l-17 -28 20 24 c12 13 21 27 21 31 0
4 -9 18 -21 31 l-20 24 17 -27z"/>
<path d="M1261 911 l2 -56 6 45 c4 25 10 50 13 56 4 6 1 11 -7 11 -12 0 -15
-13 -14 -56z"/>
<path d="M1335 960 c5 -8 12 -35 16 -60 l6 -45 2 46 c1 33 -4 51 -16 60 -15
12 -16 12 -8 -1z"/>
<path d="M1430 912 l5 -57 3 49 c2 27 0 52 -5 57 -4 4 -6 -18 -3 -49z"/>
<path d="M1480 945 c-13 -35 3 -73 35 -81 14 -3 29 -4 32 0 4 3 -3 6 -15 6
-12 0 -29 11 -38 25 -15 23 -15 27 0 50 9 14 12 25 6 25 -6 0 -15 -11 -20 -25z"/>
<path d="M1639 953 c-13 -16 -12 -17 4 -4 16 13 21 21 13 21 -2 0 -10 -8 -17
-17z"/>
<path d="M1790 955 c-7 -9 -11 -17 -9 -20 3 -2 10 5 17 15 14 24 10 26 -8 5z"/>
<path d="M1864 954 c26 -25 19 -33 -36 -37 l-53 -3 58 -2 c35 -1 57 2 57 9 0
17 -20 49 -31 49 -6 0 -3 -7 5 -16z"/>
<path d="M1780 891 c0 -5 7 -12 16 -15 14 -5 15 -4 4 9 -14 17 -20 19 -20 6z"/>
<path d="M1630 822 c0 -12 19 -26 26 -19 2 2 -2 10 -11 17 -9 8 -15 8 -15 2z"/>
<path d="M1678 793 c7 -3 16 -2 19 1 4 3 -2 6 -13 5 -11 0 -14 -3 -6 -6z"/>
</g>
</svg>
